<svg width="32" height="32" viewBox="0 0 32 32" fill="none" xmlns="http://www.w3.org/2000/svg">
<path d="M15.0798 11.5945C11.542 11.6403 0 12.0939 0 15.9973C0 20.1934 13.3281 20.4058 16.0002 20.4058C18.672 20.4058 32 20.1934 32 15.9973C32 14.1366 29.5952 13.2845 27.7866 12.8055C25.8139 12.283 23.1493 11.9042 20.2073 11.7192C20.2555 12.5138 20.2894 13.3305 20.3102 14.1609C25.6861 14.5173 28.5295 15.4398 29.4038 16.0005C28.2199 16.7787 23.6551 17.9734 16.0002 17.9734C8.33151 17.9734 3.76436 16.7743 2.58985 15.9964C3.70478 15.252 7.8828 14.1205 15.1102 14.0264C15.7706 14.0182 16.299 13.4666 16.2903 12.7948C16.282 12.1287 15.7485 11.5942 15.0953 11.5942C15.09 11.5942 15.0851 11.5942 15.0798 11.5945Z" fill="url(#paint0_linear_312_662)"/>
<path d="M11.5942 16.0003C11.5942 18.6719 11.8066 32 16.0014 32C17.8606 32 18.7124 29.5971 19.1912 27.7892C19.7138 25.8155 20.0926 23.1485 20.2781 20.2042C19.377 20.2574 18.5437 20.2892 17.8372 20.308C17.4809 25.6854 16.5584 28.5298 15.998 29.4043C15.22 28.2198 14.0255 23.6551 14.0255 16.0003C14.0255 8.3375 15.2226 3.77126 16.0002 2.59268C16.7468 3.73617 17.9104 8.09544 17.9742 15.3983C17.9799 16.0553 18.523 16.5837 19.1898 16.5837H19.2006C19.8717 16.5778 20.4115 16.0379 20.4058 15.3782C20.3716 11.4729 20.0151 7.81369 19.4015 5.07516C18.6258 1.61272 17.5453 0 16.0014 0C11.8066 0 11.5942 13.3283 11.5942 16.0003Z" fill="url(#paint1_linear_312_662)"/>
<defs>
<linearGradient id="paint0_linear_312_662" x1="2.80218e-05" y1="15.9968" x2="32" y2="15.9968" gradientUnits="userSpaceOnUse">
<stop stop-color="#45C3F3"/>
<stop offset="0.5" stop-color="#1671C2"/>
<stop offset="0.959876" stop-color="#2056AE"/>
<stop offset="1" stop-color="#2056AE"/>
</linearGradient>
<linearGradient id="paint1_linear_312_662" x1="16" y1="32.0003" x2="16" y2="2.67031e-05" gradientUnits="userSpaceOnUse">
<stop stop-color="#2056AE"/>
<stop offset="0.25" stop-color="#2056AE"/>
<stop offset="0.280093" stop-color="#2056AE"/>
<stop offset="0.625" stop-color="#A32B9B"/>
<stop offset="1" stop-color="#ED1443"/>
</linearGradient>
</defs>
</svg>
