<svg width="10" height="10" viewBox="0 0 10 10" fill="none" xmlns="http://www.w3.org/2000/svg">
<path d="M4.99999 0L9.13113 1.875H9.68749C9.86008 1.875 9.99999 2.01491 9.99999 2.1875L9.99997 3.4375C9.99997 3.61009 9.86006 3.75 9.68747 3.75H9.37497L9.37499 8.125C9.51839 8.125 9.64338 8.22339 9.67816 8.3625L9.99066 9.6125C10.014 9.70586 9.99303 9.8054 9.93381 9.88125C9.87458 9.9571 9.78372 10 9.68749 10H0.312492C0.216262 10 0.125398 9.9571 0.0661773 9.88125C0.00695636 9.8054 -0.0140172 9.70586 0.00932201 9.6125L0.321822 8.3625C0.356601 8.22339 0.481595 8.125 0.624992 8.125L0.624969 3.75H0.312469C0.13988 3.75 -3.05176e-05 3.61009 -3.05176e-05 3.4375L-8.46386e-06 2.1875C-8.46386e-06 2.01491 0.139903 1.875 0.312492 1.875H0.868855L4.99999 0ZM2.36029 1.875H7.63969L4.99999 0.625L2.36029 1.875ZM1.24997 3.75L1.24999 8.125H1.87499L1.87497 3.75H1.24997ZM2.49997 3.75L2.49999 8.125H4.06249L4.06247 3.75H2.49997ZM4.68747 3.75L4.68749 8.125H5.31249L5.31247 3.75H4.68747ZM5.93747 3.75L5.93749 8.125H7.49999L7.49997 3.75H5.93747ZM8.12497 3.75L8.12499 8.125H8.74997V3.75H8.12497ZM9.37499 3.125V2.5H0.624992V3.125H9.37499ZM9.131 8.75H0.868984L0.712734 9.375H9.28725L9.131 8.75Z" fill="url(#paint0_linear_192_708)"/>
<defs>
<linearGradient id="paint0_linear_192_708" x1="4.99998" y1="0" x2="4.99998" y2="10" gradientUnits="userSpaceOnUse">
<stop stop-color="#F529ED"/>
<stop offset="0.440625" stop-color="#9D22B1"/>
<stop offset="1" stop-color="#6892E3"/>
</linearGradient>
</defs>
</svg>
