<svg width="43" height="42" viewBox="0 0 43 42" fill="none" xmlns="http://www.w3.org/2000/svg">
<g clip-path="url(#clip0_108_965)">
<path d="M19.8332 14.9412C13.8695 15.0161 0 15.747 0 20.8998C0 26.436 16.091 26.8668 21.023 26.8668C25.9549 26.8668 42.046 26.436 42.046 20.8998C42.046 18.2683 38.7697 17.1161 36.3052 16.478C33.8185 15.8351 30.5494 15.3696 26.8373 15.1245C26.9217 16.3923 26.9789 17.7033 27.006 19.0424C32.5305 19.4342 35.8237 20.2808 37.3395 20.907C35.1293 21.8189 29.532 22.9663 21.023 22.9663C12.4772 22.9663 6.87569 21.8111 4.68304 20.8974C6.75757 20.0226 11.8776 18.9429 19.8827 18.8405C20.407 18.8339 20.897 18.6248 21.2629 18.2521C21.6287 17.8794 21.8264 17.3869 21.8192 16.8657C21.8059 15.8046 20.9266 14.9412 19.8332 14.9412Z" fill="url(#paint0_linear_108_965)"/>
<path d="M15.021 20.8992C15.021 25.8021 15.4538 41.7984 21.0228 41.7984C23.6705 41.7984 24.8289 38.5426 25.4696 36.0944C26.1078 33.6601 26.5876 30.3282 26.8317 26.6841C25.3755 26.7757 24.0242 26.8231 22.8924 26.8459C22.4976 32.3395 21.6454 35.6121 21.0161 37.1196C20.0988 34.9225 18.9441 29.3569 18.9441 20.8992C18.9441 12.4259 20.1012 6.86156 21.0198 4.67044C21.9015 6.79507 23.0286 12.1048 23.0985 20.1328C23.1076 21.1982 23.9875 22.0663 25.0772 22.0663C26.1578 22.0562 27.0306 21.1742 27.0215 20.0987C26.9781 15.0724 26.5225 10.3589 25.7402 6.82561C24.7083 2.16899 23.2094 0.000610352 21.0228 0.000610352C15.4538 0.000610352 15.021 15.9963 15.021 20.8992Z" fill="url(#paint1_linear_108_965)"/>
</g>
<defs>
<linearGradient id="paint0_linear_108_965" x1="0.000150677" y1="20.9037" x2="42.0462" y2="20.9037" gradientUnits="userSpaceOnUse">
<stop stop-color="#45C3F3"/>
<stop offset="0.5" stop-color="#1671C2"/>
<stop offset="0.959876" stop-color="#2056AE"/>
<stop offset="1" stop-color="#2056AE"/>
</linearGradient>
<linearGradient id="paint1_linear_108_965" x1="21.0214" y1="41.7984" x2="21.0214" y2="0.000166888" gradientUnits="userSpaceOnUse">
<stop stop-color="#2056AE"/>
<stop offset="0.25" stop-color="#2056AE"/>
<stop offset="0.280093" stop-color="#2056AE"/>
<stop offset="0.625" stop-color="#A32B9B"/>
<stop offset="1" stop-color="#ED1443"/>
</linearGradient>
<clipPath id="clip0_108_965">
<rect width="43" height="42" fill="white"/>
</clipPath>
</defs>
</svg>
