<svg width="41" height="46" viewBox="0 0 41 46" fill="none" xmlns="http://www.w3.org/2000/svg">
<path d="M33.8125 0.5V7.84375H11.1875V0.5H33.8125ZM40.5 0.5V46H31.125V0.5H40.5ZM10 0.5H19.3438L18.1875 23.3438C18.0208 26.7604 17.6979 29.7292 17.2188 32.25C16.7604 34.7708 16.1354 36.9167 15.3438 38.6875C14.5521 40.4375 13.5729 41.8542 12.4062 42.9375C11.2604 44 9.90625 44.7812 8.34375 45.2812C6.78125 45.7604 5 46 3 46H0.6875V38.6875L1.875 38.5938C2.89583 38.4896 3.79167 38.2188 4.5625 37.7812C5.33333 37.3438 5.98958 36.6875 6.53125 35.8125C7.09375 34.9375 7.55208 33.8229 7.90625 32.4688C8.28125 31.0938 8.57292 29.4167 8.78125 27.4375C9.01042 25.4583 9.16667 23.1458 9.25 20.5L10 0.5Z" fill="url(#paint0_linear_46_195)"/>
<defs>
<linearGradient id="paint0_linear_46_195" x1="22.0006" y1="73.9999" x2="22.0006" y2="-26.0011" gradientUnits="userSpaceOnUse">
<stop stop-color="#5690EE"/>
<stop offset="0.25" stop-color="#5088E2"/>
<stop offset="0.280093" stop-color="#407BDD"/>
<stop offset="0.625" stop-color="#D748C0"/>
<stop offset="1" stop-color="#FF0F43"/>
</linearGradient>
</defs>
</svg>
