<svg width="81" height="46" viewBox="0 0 81 46" fill="none" xmlns="http://www.w3.org/2000/svg">
<path d="M37.875 0.5V46H28.5V7.84375H10.2188V46H0.84375V0.5H37.875ZM63.7812 29.7812H52.1875V22.4688H63.7812C65.5729 22.4688 67.0312 22.1771 68.1562 21.5938C69.2812 20.9896 70.1042 20.1562 70.625 19.0938C71.1458 18.0312 71.4062 16.8333 71.4062 15.5C71.4062 14.1458 71.1458 12.8854 70.625 11.7188C70.1042 10.5521 69.2812 9.61458 68.1562 8.90625C67.0312 8.19792 65.5729 7.84375 63.7812 7.84375H55.4375V46H46.0625V0.5H63.7812C67.3438 0.5 70.3958 1.14583 72.9375 2.4375C75.5 3.70833 77.4583 5.46875 78.8125 7.71875C80.1667 9.96875 80.8438 12.5417 80.8438 15.4375C80.8438 18.375 80.1667 20.9167 78.8125 23.0625C77.4583 25.2083 75.5 26.8646 72.9375 28.0312C70.3958 29.1979 67.3438 29.7812 63.7812 29.7812Z" fill="url(#paint0_linear_46_193)"/>
<defs>
<linearGradient id="paint0_linear_46_193" x1="40.0006" y1="73.9999" x2="40.0006" y2="-26.0011" gradientUnits="userSpaceOnUse">
<stop stop-color="#5690EE"/>
<stop offset="0.25" stop-color="#5088E2"/>
<stop offset="0.280093" stop-color="#407BDD"/>
<stop offset="0.625" stop-color="#D748C0"/>
<stop offset="1" stop-color="#FF0F43"/>
</linearGradient>
</defs>
</svg>
