<svg width="16" height="16" viewBox="0 0 16 16" fill="none" xmlns="http://www.w3.org/2000/svg">
<path d="M3.5 0C3.77614 0 4 0.223858 4 0.5V1H12V0.5C12 0.223858 12.2239 0 12.5 0C12.7761 0 13 0.223858 13 0.5V1H14C15.1046 1 16 1.89543 16 3V14C16 15.1046 15.1046 16 14 16H2C0.895431 16 0 15.1046 0 14V3C0 1.89543 0.895431 1 2 1H3V0.5C3 0.223858 3.22386 0 3.5 0ZM2 2C1.44772 2 1 2.44772 1 3V14C1 14.5523 1.44772 15 2 15H14C14.5523 15 15 14.5523 15 14V3C15 2.44772 14.5523 2 14 2H2Z" fill="url(#paint0_linear_192_706)"/>
<path d="M2.5 4C2.5 3.72386 2.72386 3.5 3 3.5H13C13.2761 3.5 13.5 3.72386 13.5 4V5C13.5 5.27614 13.2761 5.5 13 5.5H3C2.72386 5.5 2.5 5.27614 2.5 5V4Z" fill="url(#paint1_linear_192_706)"/>
<defs>
<linearGradient id="paint0_linear_192_706" x1="8" y1="0" x2="8" y2="16" gradientUnits="userSpaceOnUse">
<stop stop-color="#C413A7"/>
<stop offset="0.357292" stop-color="#B734CC"/>
<stop offset="1" stop-color="#5056E7"/>
</linearGradient>
<linearGradient id="paint1_linear_192_706" x1="8" y1="0" x2="8" y2="16" gradientUnits="userSpaceOnUse">
<stop stop-color="#C413A7"/>
<stop offset="0.357292" stop-color="#B734CC"/>
<stop offset="1" stop-color="#5056E7"/>
</linearGradient>
</defs>
</svg>
