<svg width="14" height="14" viewBox="0 0 14 14" fill="none" xmlns="http://www.w3.org/2000/svg">
<path d="M7 3.0625C7 2.82088 6.80412 2.625 6.5625 2.625C6.32088 2.625 6.125 2.82088 6.125 3.0625V7.875C6.125 8.032 6.20913 8.17696 6.34544 8.25486L9.40794 10.0049C9.61773 10.1247 9.88498 10.0519 10.0049 9.84206C10.1247 9.63227 10.0518 9.36502 9.84206 9.24514L7 7.62111V3.0625Z" fill="url(#paint0_linear_192_704)"/>
<path d="M7 14C10.866 14 14 10.866 14 7C14 3.13401 10.866 0 7 0C3.13401 0 0 3.13401 0 7C0 10.866 3.13401 14 7 14ZM13.125 7C13.125 10.3827 10.3827 13.125 7 13.125C3.61726 13.125 0.875 10.3827 0.875 7C0.875 3.61726 3.61726 0.875 7 0.875C10.3827 0.875 13.125 3.61726 13.125 7Z" fill="url(#paint1_linear_192_704)"/>
<defs>
<linearGradient id="paint0_linear_192_704" x1="7" y1="0" x2="7" y2="14" gradientUnits="userSpaceOnUse">
<stop stop-color="#E32296"/>
<stop offset="0.294792" stop-color="#A41E9E"/>
<stop offset="1" stop-color="#4467E2"/>
</linearGradient>
<linearGradient id="paint1_linear_192_704" x1="7" y1="0" x2="7" y2="14" gradientUnits="userSpaceOnUse">
<stop stop-color="#E32296"/>
<stop offset="0.294792" stop-color="#A41E9E"/>
<stop offset="1" stop-color="#4467E2"/>
</linearGradient>
</defs>
</svg>
