<svg width="77" height="46" viewBox="0 0 77 46" fill="none" xmlns="http://www.w3.org/2000/svg">
<path d="M10.1562 0.5V46H0.78125V0.5H10.1562ZM36.9688 0.5L19.5312 27.2188H8.0625L6.875 18.875H14.5312L25.5938 0.5H36.9688ZM27.3125 46L14.5625 25.6562L21.0625 18.9688L38.4375 46H27.3125ZM59.8438 29.7812H48.25V22.4688H59.8438C61.6354 22.4688 63.0938 22.1771 64.2188 21.5938C65.3438 20.9896 66.1667 20.1562 66.6875 19.0938C67.2083 18.0312 67.4688 16.8333 67.4688 15.5C67.4688 14.1458 67.2083 12.8854 66.6875 11.7188C66.1667 10.5521 65.3438 9.61458 64.2188 8.90625C63.0938 8.19792 61.6354 7.84375 59.8438 7.84375H51.5V46H42.125V0.5H59.8438C63.4062 0.5 66.4583 1.14583 69 2.4375C71.5625 3.70833 73.5208 5.46875 74.875 7.71875C76.2292 9.96875 76.9062 12.5417 76.9062 15.4375C76.9062 18.375 76.2292 20.9167 74.875 23.0625C73.5208 25.2083 71.5625 26.8646 69 28.0312C66.4583 29.1979 63.4062 29.7812 59.8438 29.7812Z" fill="url(#paint0_linear_203_709)"/>
<defs>
<linearGradient id="paint0_linear_203_709" x1="38.0006" y1="73.9999" x2="38.0006" y2="-26.0011" gradientUnits="userSpaceOnUse">
<stop stop-color="#5690EE"/>
<stop offset="0.25" stop-color="#5088E2"/>
<stop offset="0.280093" stop-color="#407BDD"/>
<stop offset="0.625" stop-color="#D748C0"/>
<stop offset="1" stop-color="#FF0F43"/>
</linearGradient>
</defs>
</svg>
