<svg width="469" height="114" viewBox="0 0 469 114" fill="none" xmlns="http://www.w3.org/2000/svg">
<g clip-path="url(#clip0_218_709)">
<path d="M144 44.2701V98H163.618V43.6977C163.618 38.5602 167.829 34.3964 173.026 34.3964H201V15H173.606C157.253 15 144 28.1043 144 44.2701Z" fill="#3687CF"/>
<path d="M271.766 15L252.217 52.1228L230.606 15H208L241.434 72.481L239.338 76.2176C238.265 78.253 236.162 79.5151 233.858 79.5151H220.017V99H233.858C243.45 99 252.187 93.7541 256.66 85.3041L294 15H271.766Z" fill="#3687CF"/>
<path d="M313.263 63.4342L325.308 40.587C327.111 36.819 330.992 34.3854 335.196 34.3854H341.012C342.368 34.3854 343.468 35.4776 343.468 36.8237V63.4342H313.263ZM348.262 15H335.196C323.497 15 312.691 21.7735 307.839 31.9305L273 98H295.038L303.043 82.8224H343.468V98H363V29.6275C363 21.548 356.402 15 348.262 15Z" fill="#3687CF"/>
<path d="M442.202 15H397.796C389.625 15 383 21.5649 383 29.6598V98H402.611V36.8555C402.611 35.5157 403.707 34.4306 405.056 34.4306H434.942C436.296 34.4306 437.391 35.5157 437.391 36.8555V97.9653H457V29.6598C457 21.5649 450.375 15 442.202 15Z" fill="#3687CF"/>
<path d="M53.8147 41.723C41.1893 41.8838 0 43.4777 0 57.1916C0 71.9339 47.5635 72.6799 57.0992 72.6799C66.634 72.6799 114.197 71.9339 114.197 57.1916C114.197 50.6541 105.615 47.6604 99.161 45.9778C92.121 44.1421 82.612 42.8111 72.113 42.1611C72.285 44.9529 72.406 47.8223 72.48 50.7395C91.665 51.9918 101.812 55.2328 104.932 57.2027C100.707 59.9369 84.417 64.1341 57.0992 64.1341C29.7323 64.1341 13.4337 59.9214 9.2423 57.1883C13.2211 54.5729 28.131 50.5976 53.9232 50.267C56.2797 50.2382 58.1656 48.3004 58.1346 45.9401C58.1047 43.5997 56.2011 41.7219 53.8701 41.7219C53.8512 41.7219 53.8335 41.7219 53.8147 41.723Z" fill="url(#paint0_linear_218_709)"/>
<path d="M41.6346 57.1917C41.6346 66.741 42.3799 114.381 57.0993 114.381C63.6229 114.381 66.612 105.792 68.292 99.33C70.126 92.275 71.455 82.742 72.106 72.218C68.944 72.408 66.02 72.522 63.541 72.589C62.2907 91.81 59.0538 101.977 57.0871 105.103C54.3574 100.869 50.1659 84.553 50.1659 57.1917C50.1659 29.8016 54.3663 13.48 57.0949 9.2673C59.7149 13.3546 63.7979 28.9364 64.0216 55.0399C64.0415 57.3881 65.9473 59.277 68.287 59.277H68.325C70.68 59.2559 72.574 57.3259 72.554 54.9678C72.434 41.0087 71.183 27.9293 69.03 18.1407C66.308 5.7645 62.5167 0 57.0993 0C42.3799 0 41.6346 47.6406 41.6346 57.1917Z" fill="url(#paint1_linear_218_709)"/>
</g>
<defs>
<linearGradient id="paint0_linear_218_709" x1="0.0001" y1="57.1897" x2="114.197" y2="57.1897" gradientUnits="userSpaceOnUse">
<stop stop-color="#45C3F3"/>
<stop offset="0.5" stop-color="#1671C2"/>
<stop offset="0.959876" stop-color="#2056AE"/>
<stop offset="1" stop-color="#2056AE"/>
</linearGradient>
<linearGradient id="paint1_linear_218_709" x1="57.0941" y1="114.382" x2="57.0941" y2="9.54477e-05" gradientUnits="userSpaceOnUse">
<stop stop-color="#2056AE"/>
<stop offset="0.25" stop-color="#2056AE"/>
<stop offset="0.280093" stop-color="#2056AE"/>
<stop offset="0.625" stop-color="#A32B9B"/>
<stop offset="1" stop-color="#ED1443"/>
</linearGradient>
<clipPath id="clip0_218_709">
<rect width="469" height="114" fill="white"/>
</clipPath>
</defs>
</svg>
