<svg width="83" height="46" viewBox="0 0 83 46" fill="none" xmlns="http://www.w3.org/2000/svg">
<path d="M33.1875 0.5V7.84375H10.5625V0.5H33.1875ZM39.875 0.5V46H30.5V0.5H39.875ZM9.375 0.5H18.7188L17.5625 23.3438C17.3958 26.7604 17.0729 29.7292 16.5938 32.25C16.1354 34.7708 15.5104 36.9167 14.7188 38.6875C13.9271 40.4375 12.9479 41.8542 11.7812 42.9375C10.6354 44 9.28125 44.7812 7.71875 45.2812C6.15625 45.7604 4.375 46 2.375 46H0.0625V38.6875L1.25 38.5938C2.27083 38.4896 3.16667 38.2188 3.9375 37.7812C4.70833 37.3438 5.36458 36.6875 5.90625 35.8125C6.46875 34.9375 6.92708 33.8229 7.28125 32.4688C7.65625 31.0938 7.94792 29.4167 8.15625 27.4375C8.38542 25.4583 8.54167 23.1458 8.625 20.5L9.375 0.5ZM65.75 29.7812H54.1562V22.4688H65.75C67.5417 22.4688 69 22.1771 70.125 21.5938C71.25 20.9896 72.0729 20.1562 72.5938 19.0938C73.1146 18.0312 73.375 16.8333 73.375 15.5C73.375 14.1458 73.1146 12.8854 72.5938 11.7188C72.0729 10.5521 71.25 9.61458 70.125 8.90625C69 8.19792 67.5417 7.84375 65.75 7.84375H57.4062V46H48.0312V0.5H65.75C69.3125 0.5 72.3646 1.14583 74.9062 2.4375C77.4688 3.70833 79.4271 5.46875 80.7812 7.71875C82.1354 9.96875 82.8125 12.5417 82.8125 15.4375C82.8125 18.375 82.1354 20.9167 80.7812 23.0625C79.4271 25.2083 77.4688 26.8646 74.9062 28.0312C72.3646 29.1979 69.3125 29.7812 65.75 29.7812Z" fill="url(#paint0_linear_46_191)"/>
<defs>
<linearGradient id="paint0_linear_46_191" x1="42.0006" y1="73.9999" x2="42.0006" y2="-26.0011" gradientUnits="userSpaceOnUse">
<stop stop-color="#5690EE"/>
<stop offset="0.25" stop-color="#5088E2"/>
<stop offset="0.280093" stop-color="#407BDD"/>
<stop offset="0.625" stop-color="#D748C0"/>
<stop offset="1" stop-color="#FF0F43"/>
</linearGradient>
</defs>
</svg>
